# xmcd CD database file
#
# Track frame offsets:
#	183
#	16868
#	37875
#	59505
#
# Disc length: 1107 seconds
#
# Revision: 2
# Processed by: cddbd v1.5PL3 Copyright (c) Steve Scherf et al.
# Submitted via: CDex 1.50
#
DISCID=27045104
DTITLE=Tackhead - Class Rock
DYEAR=1990
DGENRE=Rock
TTITLE0=Class Rock
TTITLE1=Class Rock (No Class Mix)
TTITLE2=Class Rock (Re Rock Mix)
TTITLE3=Positive Suggestion
EXTD=YEAR: 1990
EXTT0=
EXTT1=
EXTT2=
EXTT3=
PLAYORDER=
